<svg xmlns="http://www.w3.org/2000/svg" width="30" height="30" viewBox="0 0 30 30"><path d="M24.615 8.233H5.385c-.212 0-.385-.197-.385-.44V7.44c0-.243.173-.44.385-.44h19.23c.212 0 .385.197.385.44v.353c0 .243-.173.44-.385.44zm0 7.495H5.385c-.212 0-.385-.197-.385-.44v-.352c0-.244.173-.44.385-.44h19.23c.212 0 .385.196.385.44v.352c0 .243-.173.44-.385.44zm0 7.612H5.385c-.212 0-.385-.198-.385-.441v-.353c0-.243.173-.44.385-.44h19.23c.212 0 .385.197.385.44v.353c0 .243-.173.44-.385.44z" fill="#FFF"/></svg>